# xmcd CD database file
#
# Track frame offsets:
#	150
#	7000
#	26737
#	49912
#	75600
#	80512
#	86700
#	94762
#	118425
#	128162
#	136150
#	138637
#	144925
#	163875
#	183600
#	188850
#	209625
#	215775
#	235725
#	256462
#	273675
#	280112
#	296325
#	309525
#	321412
#	327750
#
# Disc length: 4458 seconds
#
# Revision: 2
# Processed by: cddbd v1.5.2PL0 Copyright (c) Steve Scherf et al.
# Submitted via: CDex 1.70beta3
#
DISCID=9911681a
DTITLE=石川進・広瀬健次郎 - ど根性ガエル・ミュージックファイル
DYEAR=1993
DGENRE=Anime
TTITLE0=ど根性ガエル
TTITLE1=ゆかいな通学路
TTITLE2=ひろしピョン吉 迷コンビ
TTITLE3=愛しの京子ちゃん
TTITLE4=ど根性でヤンス
TTITLE5=ど根性ガエルマーチ
TTITLE6=ピョン吉の天気予報
TTITLE7=対決!ゴリライモ
TTITLE8=泣くな!ひろし
TTITLE9=下町の夕焼け
TTITLE10=次回予告
TTITLE11=ど根性ガエル音頭
TTITLE12=南先生 愛車ブロラン号は故障中
TTITLE13=ピョン吉にまかせろ!
TTITLE14=ど根性ガエル
TTITLE15=母ちゃん!すしくいてえ！！
TTITLE16=ど根性ガエルマーチ
TTITLE17=ブラボー!ヨシコ先生
TTITLE18=男涙のやせがまん
TTITLE19=佐川梅三郎は男でござる!
TTITLE20=五郎の初恋
TTITLE21=意地と度胸の大作戦
TTITLE22=ピョン吉・ど根性!
TTITLE23=にぎやかな放課後
TTITLE24=ど根性でヤンス
TTITLE25=ど根性ガエル
EXTD=YEAR: 1993
EXTT0=
EXTT1=
EXTT2=
EXTT3=
EXTT4=
EXTT5=
EXTT6=
EXTT7=
EXTT8=
EXTT9=
EXTT10=
EXTT11=
EXTT12=
EXTT13=
EXTT14=
EXTT15=
EXTT16=
EXTT17=
EXTT18=
EXTT19=
EXTT20=
EXTT21=
EXTT22=
EXTT23=
EXTT24=
EXTT25=
PLAYORDER=
